# xmcd
#
# Track frame offsets:
#	150
#	14962
#	28092
#	40040
#	53497
#	66497
#	77117
#	89775
#	103205
#	113780
#	125422
#	135090
#	147850
#	164995
#	177922
#	195092
#	206125
#	219192
#	230862
#	243625
#
# Disc length: 3382
#
# Revision: 3
# Processed by: cddbd v1.5.1PL0 Copyright (c) Steve Scherf et al.
# Submitted via: VisiTrax 2.9.5.181 - For more info visit www.synapsa.com
# Normalized: r2:DSETVAR1
#
DISCID=2b0d3414
DTITLE=Various Artist - Hits of the 70's Vol. 2: I Love Country
DYEAR=1997
DGENRE=
TTITLE0=Campbell, Glen - Rhinestone Cowboy
TTITLE1=Gayle, Crystal - Talking in Your Sleep
TTITLE2=Gatlin, Larry and The Gatlin Brothers Band - All the Gold in California
TTITLE3=Lynn, Loretta - Coal Miner's Daughter
TTITLE4=Haggard, Merle - The Fightin' Side of Me
TTITLE5=Mandrell, Barbara - Sleeping Single in a Double Bed
TTITLE6=Anderson, Lynn - How Can I Unlove You
TTITLE7=Harris, Emmylou - Sweet Dreams
TTITLE8=James, Sonny - Empty Arms
TTITLE9=Gentry, Bobbie and Campbell, Glen - All I Have To Do Is Dream
TTITLE10=Hall, Tom T. - I Love
TTITLE11=Gilley, Mickey - Room Full of Roses
TTITLE12=McCall, C.W. - Convoy
TTITLE13=Rabbit, Eddie - Every Which Way But Loose
TTITLE14=Price, Ray - For The Good Times
TTITLE15=Twitty, Conway - Hello Darlin'
TTITLE16=Dr. Hook - Sharin' The Night Together
TTITLE17=Goldsboro, Bobby - Watching Scotty Grow
TTITLE18=Fargo, Donna - Funny Face
TTITLE19=West, Dottie - Tonight You Belong to Me
EXTD=JEK  Priority Records P250967 72438-19331-2-1 c. 1997
EXTT0=
EXTT1=
EXTT2=
EXTT3=
EXTT4=
EXTT5=
EXTT6=
EXTT7=
EXTT8=
EXTT9=
EXTT10=
EXTT11=
EXTT12=
EXTT13=
EXTT14=
EXTT15=
EXTT16=
EXTT17=
EXTT18=
EXTT19=
PLAYORDER=
